# xmcd
#
# Track frame offsets: 
#        150
#        12099
#        23893
#        32843
#        45632
#        59886
#        69320
#        82640
#        94160
#        112915
#        126025
#        139464
#        152022
#        165479
#
# Disc length: 2339 seconds
#
# Revision: 0
# Processed by: cddbd v1.5.2PL0 Copyright (c) Steve Scherf et al.
# Submitted via: ExactAudioCopy v0.99pb5
#
DISCID=ae09210e
DTITLE=Northern City Limits Bluegrass - Clear Blue Sky
DYEAR=1995
DGENRE=Bluegrass
TTITLE0=One Glorious Day
TTITLE1=Old Old House
TTITLE2=B's Tune
TTITLE3=Down Where the River Bends
TTITLE4=King of Spades
TTITLE5=Armadillo Breakdown
TTITLE6=Dark Skies
TTITLE7=Rolling Away
TTITLE8=Katie
TTITLE9=Gone Away
TTITLE10=I'll Break Out Again Tonight
TTITLE11=Sunday Morning Singing
TTITLE12=Listening To The Rain
TTITLE13=Maybe This Time
EXTD=
EXTT0=
EXTT1=
EXTT2=
EXTT3=
EXTT4=
EXTT5=
EXTT6=
EXTT7=
EXTT8=
EXTT9=
EXTT10=
EXTT11=
EXTT12=
EXTT13=
PLAYORDER=
